<svg height="30" id="prefix__prefix__prefix__prefix__prefix__Layer_1" version="1.1" width="30" xml:space="preserve" xmlns="http://www.w3.org/2000/svg"><style type="text/css" id="style1">.prefix__prefix__prefix__prefix__prefix__st205{fill:#000}</style><g id="prefix__g1" transform="matrix(1.73486 0 0 1.73486 -11.024 -9.02)"><path class="prefix__prefix__prefix__prefix__prefix__st205" d="M15 22.492a.53.53 0 01-.53-.53v-2.494a.53.53 0 111.06 0v2.494a.53.53 0 01-.53.53z" id="prefix__prefix__prefix__prefix__prefix__path14" fill="#000" fill-opacity="1" stroke-width=".352" stroke-dasharray="none"/><path class="prefix__prefix__prefix__prefix__prefix__st205" d="M15 8.753a.53.53 0 01-.53-.53V5.729a.53.53 0 111.06 0v2.494a.53.53 0 01-.53.53z" id="prefix__prefix__prefix__prefix__prefix__path15" fill="#000" fill-opacity="1" stroke-width=".353"/><path d="M15 19.456a5.617 5.617 0 01-5.61-5.61A5.616 5.616 0 0115 8.236a5.617 5.617 0 015.61 5.61 5.616 5.616 0 01-5.61 5.61zm0-10.16a4.556 4.556 0 00-4.55 4.55c0 2.51 2.041 4.55 4.55 4.55a4.556 4.556 0 004.551-4.55c0-2.51-2.042-4.55-4.55-4.55z" id="prefix__prefix__prefix__prefix__prefix__path6-3" fill="#000" fill-opacity="1" stroke-width=".353"/><path d="M13.328 14.375H9.94a.177.53 0 110-1.06h3.387a.177.53 0 010 1.06z" id="prefix__prefix__prefix__prefix__prefix__path7-6" style="font-variation-settings:normal;-inkscape-stroke:none" opacity="1" vector-effect="none" stop-color="#000" stop-opacity="1" fill="#000" fill-opacity="1" stroke-width=".204" stroke-linecap="butt" stroke-linejoin="miter" stroke-miterlimit="4" stroke-dasharray="none" stroke-dashoffset="0" stroke-opacity="1"/><path d="M20.06 14.375h-3.387a.177.53 0 110-1.06h3.387a.177.53 0 010 1.06z" id="prefix__prefix__prefix__prefix__prefix__path7-2" style="font-variation-settings:normal;-inkscape-stroke:none" vector-effect="none" stop-color="#000" fill="#000" fill-opacity="1" stroke-width=".204" stroke-linecap="butt" stroke-linejoin="miter" stroke-miterlimit="4" stroke-dasharray="none" stroke-dashoffset="0" stroke-opacity="1"/><path d="M15 16.066a2.195 2.195 0 01-1.562-.647 2.212 2.212 0 010-3.125 2.195 2.195 0 011.563-.647 2.195 2.195 0 011.562.647 2.212 2.212 0 010 3.125 2.197 2.197 0 01-1.562.647zm0-3.36a1.151 1.151 0 00-.813 1.963 1.178 1.178 0 001.626 0 1.151 1.151 0 00-.812-1.963z" fill="#000" fill-opacity="1" id="prefix__prefix__prefix__prefix__path4" stroke-width=".353"/></g></svg>